<?xml version="1.0" encoding="UTF-8"?>
<!-- Generator: visioncortex VTracer 0.6.3 -->
<svg version="1.1" xmlns="http://www.w3.org/2000/svg" width="1280" height="1155">
<path d="M0 0 C20.41 -0.33 40.68 0.54 61.05 1.79 C65.26 2.05 69.47 2.28 73.68 2.5 C88.34 3.33 102.74 4.9 117.26 7.12 C122.63 7.95 127.99 8.59 133.39 9.13 C140.02 9.8 146.47 10.96 152.99 12.35 C156.56 13.06 160.1 13.59 163.7 14.07 C169.31 14.83 174.72 15.96 180.21 17.29 C183.74 18.1 187.27 18.75 190.83 19.38 C202.19 21.42 213.38 24.3 224.58 27.07 C225.78 27.36 225.78 27.36 227.01 27.67 C230.29 28.48 233.58 29.3 236.86 30.13 C239.52 30.8 242.17 31.45 244.83 32.09 C256.92 35.03 256.92 35.03 262.58 37.35 C266.22 38.66 269.99 39.45 273.75 40.32 C276.58 41.07 276.58 41.07 278.94 42.03 C281.73 43.13 284.53 43.82 287.44 44.52 C291.07 45.45 294.6 46.67 298.14 47.88 C299.73 48.42 301.33 48.95 302.92 49.49 C303.71 49.76 304.49 50.02 305.3 50.3 C307.37 51 309.44 51.68 311.52 52.36 C324.04 56.46 336.3 61.17 348.58 65.93 C351.34 66.97 354.11 67.96 356.89 68.94 C362.35 70.9 367.63 73.23 372.92 75.6 C375.76 76.88 378.54 78.05 381.5 79.03 C385.63 80.42 389.55 82.21 393.52 84 C395.07 84.7 396.62 85.4 398.17 86.09 C398.91 86.43 399.66 86.76 400.43 87.11 C403.46 88.46 406.52 89.76 409.58 91.07 C420.06 95.66 430.45 100.43 440.77 105.38 C441.77 105.86 442.77 106.34 443.8 106.83 C460.37 114.79 476.94 122.91 492.82 132.19 C494.71 133.13 496.51 133.63 498.58 134.07 C498.58 134.73 498.58 135.39 498.58 136.07 C499.14 136.22 499.69 136.38 500.27 136.55 C505.19 138.05 509.26 139.9 513.54 142.74 C515.71 144.15 517.93 145.39 520.2 146.63 C523.8 148.6 527.18 150.77 530.58 153.07 C532.91 154.41 535.24 155.75 537.58 157.07 C538.6 157.64 538.6 157.64 539.65 158.23 C541.77 159.43 543.89 160.62 546.02 161.82 C546.75 162.23 547.48 162.64 548.23 163.06 C550.02 164.06 551.8 165.07 553.58 166.07 C553.58 166.73 553.58 167.39 553.58 168.07 C554.3 168.16 555.02 168.25 555.77 168.35 C559.02 169.18 560.9 170.49 563.58 172.5 C566.83 174.94 569.75 176.7 573.58 178.07 C573.58 178.73 573.58 179.39 573.58 180.07 C574.28 180.31 574.98 180.56 575.7 180.82 C578.97 182.24 581.63 184.07 584.58 186.07 C586.24 187.13 587.91 188.2 589.58 189.26 C595.28 192.9 600.9 196.61 606.4 200.56 C608.63 202.14 608.63 202.14 611.29 203.64 C613.58 205.07 613.58 205.07 614.58 207.07 C616.23 208.1 617.9 209.09 619.58 210.07 C621.19 211.07 622.8 212.1 624.39 213.13 C625.18 213.64 625.97 214.14 626.79 214.66 C627.38 215.13 627.97 215.59 628.58 216.07 C628.58 216.73 628.58 217.39 628.58 218.07 C629.48 218.22 629.48 218.22 630.39 218.38 C632.89 219.17 633.79 220.2 635.58 222.07 C636.57 222.4 637.56 222.73 638.58 223.07 C640.27 224.71 641.93 226.38 643.58 228.07 C644.45 228.71 645.31 229.35 646.2 230 C649.68 233.02 651.27 235.8 651.9 240.39 C652.18 246.43 651.51 251.35 647.58 256.07 C642.68 260.35 637.56 264.34 631.92 267.61 C629.51 268.99 629.51 268.99 627.61 271.03 C625.28 273.37 622.84 274.91 620.02 276.63 C616.23 278.9 616.23 278.9 612.93 281.78 C611.58 283.07 611.58 283.07 608.58 283.07 C608.58 283.73 608.58 284.39 608.58 285.07 C606.88 286.48 606.88 286.48 604.45 288.13 C603.55 288.74 602.65 289.36 601.73 289.99 C597.59 292.72 593.42 295.4 589.23 298.05 C586.79 299.59 584.62 301.02 582.58 303.07 C581.26 303.07 579.94 303.07 578.58 303.07 C578.58 303.73 578.58 304.39 578.58 305.07 C576.49 306.58 576.49 306.58 573.64 308.32 C569.2 311.05 564.9 313.88 560.65 316.9 C558.3 318.22 556.23 318.67 553.58 319.07 C553.58 319.73 553.58 320.39 553.58 321.07 C553.05 321.36 552.51 321.65 551.96 321.95 C545.24 325.65 538.66 329.58 532.11 333.57 C526.83 336.77 521.48 339.77 516.04 342.69 C513.41 344.11 513.41 344.11 510.45 346.25 C506.7 348.62 502.81 349.82 498.58 351.07 C498.58 351.73 498.58 352.39 498.58 353.07 C497.58 353.49 496.57 353.91 495.54 354.34 C491.69 355.99 487.94 357.81 484.2 359.69 C483.52 360.04 482.83 360.38 482.12 360.74 C476.35 363.64 470.64 366.67 464.94 369.71 C458.19 373.3 451.35 376.72 444.49 380.11 C442.6 381.06 440.71 382.02 438.82 382.98 C432.99 385.95 427.18 388.7 421.07 391.04 C418.16 392.24 415.39 393.63 412.58 395.07 C408.17 397.31 403.75 399.29 399.13 401.07 C396.3 402.17 393.5 403.33 390.7 404.5 C389.69 404.93 388.69 405.35 387.65 405.78 C385.63 406.63 383.62 407.47 381.61 408.32 C375.38 410.94 369.11 413.41 362.79 415.82 C359.72 417.01 356.68 418.28 353.64 419.57 C347.05 422.34 340.33 424.7 333.58 427.07 C331.27 427.9 328.95 428.73 326.64 429.57 C319.32 432.18 311.96 434.63 304.58 437.07 C303.35 437.48 302.12 437.89 300.86 438.32 C287.93 442.66 275.01 446.81 261.79 450.17 C258.66 450.98 258.66 450.98 256.08 452.07 C253.02 453.29 249.97 454.04 246.77 454.82 C245.34 455.17 243.9 455.52 242.47 455.87 C241.3 456.15 241.3 456.15 240.11 456.44 C237.39 457.11 234.68 457.8 231.97 458.48 C214.19 462.99 196.42 467.43 178.31 470.39 C175.66 470.87 173.14 471.41 170.54 472.09 C166.91 473.03 163.31 473.57 159.58 474 C154.25 474.67 149.04 475.52 143.77 476.57 C137.42 477.81 131.09 478.65 124.66 479.3 C120.78 479.7 116.94 480.14 113.09 480.75 C84.02 485.29 53.98 486.52 24.58 487.07 C23.48 487.09 22.39 487.11 21.26 487.13 C1.5 487.47 -18.15 486.54 -37.87 485.34 C-40.77 485.16 -43.67 485 -46.57 484.84 C-63.98 483.9 -81.07 482.06 -98.32 479.51 C-102.47 478.92 -106.63 478.45 -110.8 478 C-117.22 477.28 -123.47 476.12 -129.8 474.79 C-133.37 474.08 -136.93 473.55 -140.55 473.07 C-146.15 472.31 -151.56 471.17 -157.05 469.84 C-160.58 469.03 -164.11 468.38 -167.67 467.75 C-184.2 464.77 -200.5 460.39 -216.72 456.07 C-221.6 454.78 -226.48 453.58 -231.43 452.55 C-233.51 452.04 -235.43 451.36 -237.42 450.57 C-240.08 449.52 -242.62 448.75 -245.42 448.19 C-257.94 445.58 -270.14 440.87 -282.24 436.8 C-285.01 435.87 -287.79 434.94 -290.56 434.02 C-292.43 433.4 -294.3 432.77 -296.17 432.15 C-298.07 431.51 -299.98 430.88 -301.89 430.27 C-310.14 427.59 -318.28 424.54 -326.17 420.94 C-328.99 419.66 -331.78 418.57 -334.73 417.63 C-339.43 416.12 -343.93 414.23 -348.47 412.31 C-350.98 411.25 -353.51 410.24 -356.05 409.25 C-362.5 406.69 -368.82 403.81 -375.15 400.97 C-378.89 399.29 -382.65 397.67 -386.42 396.07 C-396.9 391.48 -407.29 386.7 -417.61 381.75 C-418.61 381.27 -419.61 380.8 -420.64 380.3 C-432.28 374.71 -443.82 368.98 -455.19 362.86 C-458.67 360.98 -462.18 359.18 -465.73 357.44 C-468.99 355.84 -472.08 354.09 -475.17 352.19 C-480.39 348.99 -485.81 346.34 -491.32 343.68 C-493.96 342.31 -496.06 340.85 -498.42 339.07 C-500.32 338.07 -502.24 337.12 -504.17 336.19 C-509.14 333.74 -513.79 331.1 -518.42 328.07 C-520.15 326.94 -521.89 325.82 -523.62 324.7 C-524.83 323.93 -526.03 323.15 -527.23 322.36 C-531.22 319.78 -535.28 317.39 -539.42 315.07 C-541.75 313.73 -544.09 312.4 -546.42 311.07 C-546.42 310.41 -546.42 309.75 -546.42 309.07 C-547.26 308.83 -548.1 308.6 -548.96 308.36 C-553.02 306.84 -556.2 304.77 -559.73 302.32 C-561.07 301.41 -562.4 300.5 -563.73 299.59 C-564.37 299.16 -565.01 298.72 -565.66 298.27 C-567.84 296.78 -570.03 295.33 -572.23 293.88 C-576.23 291.22 -580.15 288.46 -584.06 285.68 C-586.45 284 -586.45 284 -589.22 282.48 C-589.94 282.02 -590.67 281.55 -591.42 281.07 C-591.42 280.41 -591.42 279.75 -591.42 279.07 C-592.16 278.98 -592.91 278.9 -593.67 278.82 C-597 277.91 -598.09 276.55 -600.42 274.07 C-602.08 273.06 -603.75 272.06 -605.42 271.07 C-605.75 270.41 -606.08 269.75 -606.42 269.07 C-608.07 268.04 -609.74 267.05 -611.42 266.07 C-626.79 255.48 -626.79 255.48 -628.42 248.07 C-629.1 242.65 -628.51 238.15 -626.42 233.07 C-625.76 233.07 -625.1 233.07 -624.42 233.07 C-624.21 232.49 -624.01 231.91 -623.8 231.32 C-621.93 228.26 -619.41 226.97 -616.42 225.07 C-615.93 224.08 -615.93 224.08 -615.42 223.07 C-613.77 222.05 -612.1 221.05 -610.42 220.07 C-609.43 219.08 -609.43 219.08 -608.42 218.07 C-607.43 218.07 -606.44 218.07 -605.42 218.07 C-605.42 217.41 -605.42 216.75 -605.42 216.07 C-603.78 214.88 -603.78 214.88 -601.61 213.63 C-599.4 212.34 -597.61 211.27 -595.85 209.41 C-594.42 208.07 -594.42 208.07 -591.42 208.07 C-591.42 207.41 -591.42 206.75 -591.42 206.07 C-589.44 204.48 -589.44 204.48 -586.8 202.69 C-585.88 202.06 -584.96 201.44 -584.01 200.79 C-581.15 198.88 -578.28 196.97 -575.42 195.07 C-573.77 193.9 -572.13 192.73 -570.48 191.57 C-567.65 189.57 -564.84 187.67 -561.8 186 C-558.34 184.02 -555.39 181.76 -552.32 179.24 C-550.42 178.07 -550.42 178.07 -546.42 178.07 C-546.42 177.41 -546.42 176.75 -546.42 176.07 C-544.76 174.88 -544.76 174.88 -542.36 173.5 C-541 172.71 -541 172.71 -539.6 171.91 C-538.55 171.3 -537.5 170.69 -536.42 170.07 C-533.92 168.58 -531.42 167.07 -528.92 165.57 C-527.63 164.79 -526.33 164.01 -525.03 163.23 C-524.42 162.86 -523.8 162.49 -523.16 162.11 C-516.11 157.88 -516.11 157.88 -513.76 156.47 C-512.1 155.48 -510.45 154.48 -508.8 153.47 C-507.5 152.68 -507.5 152.68 -506.17 151.88 C-505.4 151.41 -504.63 150.94 -503.84 150.46 C-502.09 149.45 -500.29 148.5 -498.48 147.6 C-495.49 146.1 -492.66 144.47 -489.8 142.75 C-484.65 139.72 -479.41 137.03 -474.05 134.41 C-471.91 133.32 -469.96 132.18 -467.98 130.82 C-465.42 129.07 -465.42 129.07 -463.19 128.18 C-459.86 126.84 -456.75 125.16 -453.61 123.44 C-440.82 116.56 -427.77 110.25 -414.66 104.01 C-409.57 101.59 -404.51 99.13 -399.48 96.57 C-395.82 94.71 -392.18 93.13 -388.32 91.76 C-385.53 90.74 -382.86 89.51 -380.16 88.3 C-365.15 81.55 -350.03 75.11 -334.6 69.39 C-328.33 67.06 -322.13 64.55 -315.93 62.03 C-310.48 59.83 -305.01 57.87 -299.42 56.07 C-297.99 55.59 -296.56 55.11 -295.13 54.64 C-292.9 53.89 -290.67 53.15 -288.44 52.41 C-284.79 51.19 -281.13 49.97 -277.48 48.74 C-264.63 44.42 -251.77 40.31 -238.63 36.96 C-235.51 36.15 -235.51 36.15 -232.95 35.07 C-229.75 33.8 -226.52 33.01 -223.17 32.19 C-222.47 32.02 -221.76 31.85 -221.04 31.67 C-215.5 30.31 -209.95 29 -204.39 27.71 C-200.15 26.72 -195.9 25.7 -191.67 24.66 C-169.97 19.34 -148.18 15.07 -126.13 11.52 C-123.41 11.06 -120.7 10.56 -117.99 10.05 C-112.08 8.96 -106.14 8.24 -100.17 7.57 C-98.1 7.33 -96.04 7.09 -93.97 6.85 C-92.37 6.66 -92.37 6.66 -90.74 6.47 C-87.31 6.05 -83.89 5.56 -80.46 5.07 C-70.69 3.76 -60.88 3.14 -51.05 2.5 C-50.07 2.44 -49.1 2.38 -48.09 2.31 C-32.07 1.25 -16.06 0.31 0 0 Z M-21.42 51.07 C-22.75 51.29 -24.07 51.5 -25.39 51.72 C-47.41 55.68 -69.57 64.01 -88.42 76.07 C-89.52 76.74 -90.63 77.42 -91.76 78.11 C-101.51 84.15 -111.41 90.81 -119.42 99.07 C-120.54 100.01 -121.66 100.95 -122.8 101.88 C-125.53 104.21 -127.88 106.64 -130.13 109.46 C-131.56 111.24 -133.08 112.93 -134.61 114.63 C-149.8 131.94 -162.19 151.53 -170.42 173.07 C-170.91 174.29 -171.4 175.51 -171.9 176.76 C-174.89 184.36 -177.26 191.73 -178.78 199.79 C-179.24 202.15 -179.81 204.5 -180.43 206.84 C-181.64 211.6 -182.12 216.37 -182.55 221.25 C-182.63 222.21 -182.71 223.17 -182.8 224.16 C-185.01 251.69 -184.01 281.54 -172.42 307.07 C-171.94 308.45 -171.48 309.85 -171.05 311.25 C-163.67 333.76 -150.58 354.4 -134.57 371.73 C-131.9 374.64 -129.36 377.64 -126.83 380.67 C-125.52 382.3 -125.52 382.3 -123.42 382.07 C-122.93 383.55 -122.93 383.55 -122.42 385.07 C-115.67 391.38 -107.97 396.76 -100.42 402.07 C-99.5 402.73 -98.57 403.38 -97.62 404.06 C-90.77 408.81 -83.68 412.6 -76.18 416.21 C-73.66 417.43 -71.23 418.73 -68.81 420.15 C-35.61 438.95 10.05 440.8 46.58 434.07 C47.93 433.84 49.29 433.6 50.64 433.38 C74.75 428.98 98.64 419.41 118.58 405.07 C119.72 404.26 120.87 403.46 122.02 402.65 C123.27 401.77 124.52 400.89 125.77 400 C126.35 399.59 126.93 399.18 127.53 398.76 C131.36 396.02 135.08 393.22 138.58 390.07 C138.58 389.41 138.58 388.75 138.58 388.07 C139.28 387.88 139.98 387.7 140.7 387.5 C144.11 385.8 145.74 383.79 148.1 380.87 C150.77 377.62 153.84 374.77 156.89 371.88 C158.81 370.24 158.81 370.24 158.58 368.07 C159.57 367.74 160.56 367.41 161.58 367.07 C163.27 364.97 164.81 362.9 166.33 360.69 C166.77 360.06 167.21 359.43 167.67 358.78 C172.99 351.12 178.02 343.32 182.46 335.11 C183.48 333.25 184.55 331.44 185.64 329.63 C188.11 325.3 189.84 320.73 191.58 316.07 C192.04 314.84 192.51 313.61 192.99 312.35 C209.69 267.4 209.99 215.31 191.35 170.92 C190.35 168.51 189.44 166.07 188.52 163.63 C181.98 147.51 171.53 132.49 160.58 119.07 C160.09 118.47 159.6 117.86 159.1 117.25 C157.6 115.41 156.09 113.58 154.58 111.75 C154.11 111.18 153.64 110.61 153.16 110.03 C152.01 108.67 150.8 107.36 149.58 106.07 C148.92 106.07 148.26 106.07 147.58 106.07 C147.18 105.11 147.18 105.11 146.77 104.13 C145.69 101.74 145.69 101.74 142.58 101.07 C142.25 100.08 141.92 99.09 141.58 98.07 C126.2 83.47 106.2 70.95 86.58 63.07 C85.5 62.63 84.42 62.19 83.31 61.73 C77.44 59.41 71.72 57.5 65.58 56.07 C64.25 55.6 62.92 55.13 61.59 54.64 C56.02 52.77 50.38 51.85 44.58 50.94 C43.55 50.77 42.52 50.6 41.46 50.43 C20.25 47 -0.27 47.3 -21.42 51.07 Z M-138.8 50.88 C-146.13 52.58 -153.46 54.05 -160.87 55.36 C-164.45 56.02 -164.45 56.02 -168.01 57.09 C-171.11 57.98 -174.05 58.55 -177.23 59 C-181.99 59.76 -186.41 60.88 -190.99 62.35 C-193.47 63.08 -195.93 63.59 -198.48 64.07 C-202.46 64.81 -206.12 65.93 -209.92 67.28 C-214.02 68.57 -218.21 69.42 -222.41 70.32 C-225.22 71.02 -227.74 71.97 -230.42 73.07 C-232.48 73.51 -234.54 73.94 -236.6 74.38 C-248.38 77.24 -259.89 81.52 -271.37 85.38 C-274.28 86.35 -277.2 87.3 -280.11 88.25 C-283.17 89.27 -286.16 90.33 -289.11 91.63 C-292.37 93.05 -295.63 94.16 -299.01 95.27 C-309.49 98.73 -319.69 102.93 -329.92 107.06 C-332.5 108.1 -335.08 109.13 -337.67 110.16 C-341.26 111.6 -344.85 113.06 -348.42 114.57 C-352.14 116.12 -355.86 117.65 -359.61 119.13 C-364.27 120.99 -368.85 122.99 -373.42 125.07 C-374.4 125.51 -375.38 125.95 -376.38 126.41 C-383.38 129.6 -390.28 132.96 -397.13 136.45 C-400.52 138.11 -403.95 139.59 -407.42 141.07 C-409.37 142.01 -411.3 142.97 -413.23 143.94 C-414.27 144.46 -415.3 144.99 -416.37 145.52 C-417.38 146.03 -418.38 146.54 -419.42 147.07 C-421.13 147.92 -422.84 148.78 -424.55 149.63 C-425.75 150.23 -425.75 150.23 -426.98 150.84 C-429.54 152.13 -432.11 153.41 -434.67 154.69 C-435.5 155.11 -436.33 155.52 -437.19 155.95 C-438.91 156.81 -440.63 157.66 -442.36 158.5 C-448.74 161.76 -454.98 165.26 -461.23 168.75 C-463.71 170.14 -466.18 171.44 -468.73 172.69 C-471.4 173.96 -471.4 173.96 -473.48 175.63 C-475.7 177.27 -477.85 178.05 -480.42 179.07 C-485.37 181.78 -490.18 184.72 -495.02 187.63 C-496.95 188.78 -498.9 189.9 -500.86 191 C-503.98 192.76 -506.97 194.69 -509.98 196.63 C-513.72 199.02 -517.39 201.22 -521.42 203.07 C-521.42 203.73 -521.42 204.39 -521.42 205.07 C-522.1 205.31 -522.78 205.55 -523.49 205.79 C-527.02 207.33 -530.15 209.33 -533.36 211.44 C-534.25 212.02 -534.25 212.02 -535.16 212.61 C-541.51 216.75 -547.77 221 -553.96 225.38 C-556.39 227.05 -558.89 228.55 -561.42 230.07 C-564.04 231.73 -566.64 233.42 -569.23 235.13 C-569.93 235.58 -570.62 236.02 -571.33 236.48 C-573.07 237.62 -574.75 238.84 -576.42 240.07 C-576.42 240.73 -576.42 241.39 -576.42 242.07 C-577.41 242.4 -578.4 242.73 -579.42 243.07 C-579.09 243.73 -578.76 244.39 -578.42 245.07 C-577.76 245.07 -577.1 245.07 -576.42 245.07 C-576.42 245.73 -576.42 246.39 -576.42 247.07 C-574.74 248.26 -573 249.37 -571.23 250.44 C-567.39 252.77 -563.92 255.26 -560.42 258.07 C-558.76 259.08 -557.1 260.08 -555.42 261.07 C-552.9 262.8 -550.41 264.57 -547.92 266.35 C-546.28 267.48 -544.61 268.56 -542.9 269.58 C-540.43 271.06 -538.13 272.68 -535.8 274.38 C-531.31 277.56 -526.67 280.16 -521.82 282.73 C-519.1 284.25 -516.81 286.07 -514.42 288.07 C-512.77 289.04 -511.12 290.01 -509.44 290.93 C-507.07 292.26 -504.75 293.66 -502.42 295.07 C-495.03 299.51 -495.03 299.51 -487.42 303.57 C-484.67 304.94 -482 306.42 -479.34 307.96 C-477.2 309.19 -475.03 310.38 -472.86 311.57 C-469.25 313.56 -465.85 315.78 -462.42 318.07 C-460.43 319.08 -458.43 320.08 -456.42 321.07 C-454.67 322.02 -452.92 322.98 -451.17 323.94 C-445.98 326.78 -440.73 329.45 -435.42 332.07 C-433.75 332.9 -432.09 333.73 -430.42 334.57 C-429.6 334.98 -428.77 335.39 -427.92 335.82 C-425.42 337.07 -422.92 338.32 -420.42 339.57 C-419.59 339.98 -418.76 340.4 -417.9 340.82 C-416.3 341.63 -414.7 342.43 -413.1 343.25 C-407.39 346.13 -401.62 348.86 -395.82 351.55 C-392.58 353.05 -389.35 354.57 -386.17 356.19 C-379.07 359.8 -371.74 362.93 -364.42 366.07 C-362.49 366.91 -360.56 367.76 -358.63 368.62 C-351.94 371.56 -345.23 374.4 -338.42 377.07 C-336.63 377.79 -334.84 378.5 -333.05 379.23 C-318.48 385.1 -318.48 385.1 -303.67 390.32 C-298.05 392.19 -292.46 394.16 -287.05 396.57 C-282.84 398.31 -278.57 399.59 -274.21 400.9 C-269.92 402.22 -265.67 403.63 -261.42 405.07 C-251.09 408.53 -240.78 411.79 -230.19 414.35 C-226.98 415.18 -223.9 416.23 -220.78 417.31 C-217.01 418.52 -213.16 419.41 -209.32 420.32 C-206.42 421.07 -206.42 421.07 -203.49 422.06 C-200.18 423.15 -196.9 423.87 -193.48 424.57 C-189.85 425.32 -186.3 426.1 -182.73 427.13 C-179.88 427.94 -177.15 428.5 -174.23 429 C-170.36 429.68 -166.59 430.5 -162.8 431.5 C-157.08 432.98 -151.33 434.02 -145.51 435 C-141.72 435.65 -137.97 436.36 -134.23 437.25 C-130.82 437.98 -127.9 438.24 -124.42 438.07 C-124.75 437.08 -125.08 436.09 -125.42 435.07 C-126.08 435.07 -126.74 435.07 -127.42 435.07 C-127.75 434.08 -128.08 433.09 -128.42 432.07 C-130.41 430.4 -132.39 428.85 -134.48 427.32 C-139.17 423.82 -143.64 420.23 -147.93 416.25 C-149.37 414.86 -149.37 414.86 -151.42 415.07 C-151.69 414.43 -151.96 413.79 -152.23 413.13 C-153.31 410.74 -153.31 410.74 -156.42 410.07 C-157.09 408.73 -157.75 407.4 -158.42 406.07 C-159.41 405.74 -160.4 405.41 -161.42 405.07 C-162.11 403.74 -162.77 402.41 -163.42 401.07 C-164.98 398.92 -166.63 397.04 -168.42 395.07 C-169.08 395.07 -169.74 395.07 -170.42 395.07 C-170.79 394.25 -170.79 394.25 -171.16 393.41 C-172.7 390.55 -174.56 388.13 -176.55 385.57 C-193.16 363.74 -207.15 338.64 -214.42 312.07 C-214.59 311.44 -214.76 310.82 -214.94 310.18 C-216.13 305.82 -217.29 301.45 -218.42 297.07 C-218.75 295.9 -219.07 294.74 -219.41 293.54 C-229.11 254.29 -228.18 204.19 -211.42 167.07 C-210.96 165.72 -210.52 164.37 -210.11 163 C-204.57 146.2 -195.94 129.94 -186.42 115.07 C-185.83 114.13 -185.24 113.19 -184.63 112.23 C-180.3 105.52 -175.56 99.47 -170.33 93.46 C-168.21 91.32 -168.21 91.32 -168.42 89.07 C-166.94 88.57 -166.94 88.57 -165.42 88.07 C-164.03 86.44 -164.03 86.44 -162.73 84.44 C-159.95 80.57 -156.87 77.63 -153.23 74.58 C-151.34 73.04 -151.34 73.04 -149.42 71.07 C-143.44 65.09 -136.78 59.93 -130.08 54.8 C-126.76 52.36 -126.76 52.36 -124.42 49.07 C-129.51 48.83 -133.9 49.7 -138.8 50.88 Z M146.58 49.07 C149.34 51.92 152.2 54.43 155.33 56.88 C159.35 60.05 163.21 63.35 166.99 66.82 C168.5 68.27 168.5 68.27 170.58 68.07 C170.85 68.71 171.12 69.35 171.39 70 C172.47 72.4 172.47 72.4 175.58 73.07 C176.25 74.4 176.91 75.73 177.58 77.07 C178.57 77.4 179.56 77.73 180.58 78.07 C181.27 79.39 181.93 80.73 182.58 82.07 C184.88 84.99 187.13 87.64 189.83 90.21 C193.34 93.86 196.28 97.8 199.27 101.88 C199.88 102.71 200.49 103.54 201.12 104.4 C208.96 115.21 216.3 126.33 221.58 138.63 C222.64 141.05 223.69 143.25 225.08 145.5 C227.42 149.5 228.96 153.74 230.58 158.07 C230.81 158.68 231.04 159.3 231.28 159.93 C238.14 178.31 241.83 196.67 244.58 216.07 C244.69 216.78 244.79 217.49 244.9 218.22 C245.96 226.17 245.87 234.24 245.89 242.25 C245.89 243.06 245.9 243.87 245.9 244.71 C245.9 256.08 245.35 267.23 243.83 278.5 C243.59 280.26 243.59 280.26 243.35 282.05 C242.28 289.18 240.6 295.98 238.52 302.89 C237.61 305.95 236.85 309.02 236.14 312.13 C234.54 318.68 232.11 324.83 229.58 331.07 C229.23 331.97 228.87 332.87 228.51 333.79 C225.41 341.66 222.35 349.05 217.58 356.07 C216.63 357.81 215.69 359.56 214.77 361.32 C211.76 366.89 208.29 371.95 204.58 377.07 C203.79 378.18 203.01 379.3 202.23 380.42 C188.44 400.07 188.44 400.07 180.24 406.63 C178.42 408.2 176.98 409.9 175.45 411.75 C168.16 420.31 158.81 427.16 149.53 433.41 C148.56 434.23 148.56 434.23 147.58 435.07 C147.58 436.06 147.58 437.05 147.58 438.07 C154.59 437.66 161.15 436.56 167.97 434.89 C172.83 433.78 177.74 432.95 182.67 432.16 C186.81 431.47 190.61 430.41 194.58 429.07 C196.49 428.71 198.41 428.4 200.33 428.13 C205.11 427.38 209.55 426.26 214.15 424.79 C216.63 424.05 219.09 423.54 221.64 423.07 C225.71 422.3 229.47 421.15 233.36 419.79 C235.59 419.06 237.79 418.54 240.08 418.07 C243.17 417.42 246.1 416.6 249.08 415.57 C251.92 414.58 254.69 413.78 257.64 413.19 C270.18 410.54 282.4 405.83 294.53 401.75 C297.44 400.78 300.35 399.83 303.27 398.88 C306.33 397.86 309.32 396.8 312.27 395.5 C314.7 394.45 317.01 393.57 319.52 392.75 C324.53 391.13 329.45 389.27 334.38 387.4 C338.19 385.96 342.01 384.55 345.84 383.18 C351.81 381.02 357.66 378.6 363.52 376.13 C365.53 375.29 367.53 374.44 369.54 373.6 C371.03 372.98 371.03 372.98 372.55 372.34 C375.64 371.04 378.75 369.76 381.85 368.47 C386.38 366.59 390.83 364.61 395.27 362.5 C399.25 360.62 403.23 358.76 407.27 357 C411.87 354.99 416.32 352.7 420.81 350.44 C424.01 348.85 427.29 347.48 430.58 346.07 C434.6 344.11 438.59 342.08 442.58 340.07 C444.29 339.21 446 338.36 447.7 337.5 C448.51 337.1 449.31 336.7 450.13 336.29 C462.58 330.07 462.58 330.07 465.49 328.62 C473.66 324.51 481.64 320.09 489.45 315.33 C492.09 313.76 494.82 312.42 497.58 311.07 C501.26 309.09 504.92 307.08 508.58 305.07 C508.58 304.41 508.58 303.75 508.58 303.07 C509.31 302.96 510.04 302.84 510.79 302.73 C513.73 302.03 515.65 301.04 518.2 299.44 C519.07 298.91 519.93 298.37 520.83 297.82 C524.57 295.44 528.31 293.05 532.04 290.66 C535.17 288.69 538.35 286.87 541.58 285.07 C542.89 284.32 544.2 283.57 545.52 282.82 C546.53 282.24 547.54 281.66 548.58 281.07 C548.58 280.41 548.58 279.75 548.58 279.07 C549.36 278.88 550.15 278.7 550.95 278.5 C555.15 276.84 558.35 274.57 561.99 271.94 C564.42 270.18 566.89 268.48 569.39 266.82 C570.08 266.36 570.77 265.9 571.47 265.43 C572.97 264.46 574.49 263.52 576.03 262.61 C578.63 261.03 581.1 259.33 583.58 257.57 C586.14 255.74 588.65 254.03 591.39 252.47 C592.11 252.01 592.84 251.54 593.58 251.07 C593.58 250.41 593.58 249.75 593.58 249.07 C594.32 249 595.06 248.94 595.83 248.88 C599.4 247.82 600.5 246.07 602.58 243.07 C601.65 242.24 600.72 241.42 599.77 240.57 C599.24 240.1 598.72 239.64 598.18 239.16 C596.49 237.78 596.49 237.78 593.58 238.07 C593.58 237.41 593.58 236.75 593.58 236.07 C591.54 234.38 591.54 234.38 588.95 232.69 C588.03 232.06 587.11 231.44 586.17 230.79 C584.3 229.55 582.44 228.31 580.58 227.07 C577.9 225.28 575.27 223.43 572.64 221.57 C569.82 219.58 567.03 217.68 564.02 216 C560.38 213.95 557.01 211.65 553.59 209.24 C551.54 207.82 551.54 207.82 548.58 208.07 C548.58 207.41 548.58 206.75 548.58 206.07 C546.7 204.71 546.7 204.71 544.27 203.38 C540.49 201.19 536.8 198.94 533.14 196.57 C528.63 193.67 524.01 191.07 519.29 188.54 C514.21 185.77 509.07 182.95 504.45 179.45 C502.58 177.94 502.58 177.94 500.08 177.07 C497.51 176.04 495.78 174.72 493.58 173.07 C492.86 172.78 492.14 172.49 491.39 172.19 C487.24 170.53 483.47 168.26 479.58 166.07 C472.66 162.23 465.68 158.56 458.58 155.07 C456.91 154.23 455.25 153.4 453.58 152.57 C452.75 152.15 451.93 151.74 451.08 151.32 C448.58 150.07 446.08 148.82 443.58 147.57 C442.75 147.15 441.92 146.74 441.06 146.31 C439.46 145.51 437.85 144.7 436.25 143.89 C430.59 141.02 424.87 138.31 419.11 135.65 C415.93 134.18 412.78 132.67 409.66 131.07 C404.79 128.62 399.74 126.63 394.67 124.62 C390.74 123.04 387.19 121.3 383.58 119.07 C382.07 118.4 380.55 117.78 379.02 117.19 C375.24 115.72 371.5 114.2 367.77 112.63 C362.48 110.42 357.15 108.35 351.79 106.32 C348.72 105.12 345.68 103.86 342.64 102.57 C336.05 99.79 329.33 97.43 322.58 95.07 C320.27 94.23 317.95 93.4 315.64 92.57 C309 90.19 302.32 87.95 295.62 85.74 C293.44 85.02 291.26 84.29 289.09 83.56 C277.24 79.58 265.44 75.72 253.29 72.79 C250.25 71.98 247.41 70.91 244.5 69.75 C241.69 68.75 238.83 68.19 235.91 67.59 C233.52 67.05 231.23 66.37 228.89 65.63 C223.59 63.99 218.2 62.88 212.77 61.75 C210.46 61.26 208.16 60.66 205.89 60 C203.04 59.2 200.31 58.63 197.39 58.13 C193.5 57.45 189.71 56.63 185.89 55.63 C179.76 54.05 173.58 52.89 167.36 51.76 C164.23 51.19 161.13 50.55 158.02 49.88 C154.12 49.08 150.55 48.89 146.58 49.07 Z " fill="#4F5156" transform="translate(628.4208984375,333.93359375)"/>
<path d="M0 0 C4.5 0.61 9.02 1.03 13.54 1.44 C19.97 2.07 26.28 3.06 32.61 4.31 C33.4 4.46 34.19 4.61 35.01 4.77 C39.73 5.77 42.62 7.07 46.23 10.44 C47 11.05 47.77 11.66 48.56 12.3 C50.22 13.63 51.88 14.96 53.54 16.3 C55.3 17.7 57.07 19.08 58.86 20.45 C63.67 24.18 67.82 27.95 71.71 32.62 C74.57 36.04 77.83 39.05 81.04 42.12 C83.23 44.44 83.23 44.44 83.23 46.44 C84.22 46.77 85.21 47.1 86.23 47.44 C88.18 49.7 88.18 49.7 90.36 52.69 C90.75 53.22 91.14 53.76 91.55 54.31 C97.64 62.67 103.48 71.19 109.11 79.88 C109.66 80.73 109.66 80.73 110.23 81.59 C113.39 86.52 115.93 91.63 118.23 97 C119.29 99.42 120.34 101.62 121.73 103.88 C124.07 107.87 125.61 112.11 127.23 116.44 C127.46 117.05 127.69 117.67 127.93 118.3 C134.79 136.68 138.48 155.04 141.23 174.44 C141.34 175.15 141.45 175.86 141.56 176.59 C142.62 184.54 142.52 192.61 142.54 200.62 C142.55 201.43 142.55 202.24 142.55 203.08 C142.56 214.45 142 225.6 140.48 236.88 C140.25 238.63 140.25 238.63 140.01 240.42 C138.94 247.55 137.25 254.36 135.17 261.26 C134.27 264.32 133.51 267.39 132.79 270.5 C131.19 277.05 128.76 283.2 126.23 289.44 C125.88 290.34 125.53 291.24 125.16 292.16 C122.07 300.04 119 307.42 114.23 314.44 C113.28 316.18 112.35 317.93 111.42 319.69 C108.41 325.26 104.94 330.32 101.23 335.44 C100.46 336.54 99.69 337.65 98.92 338.75 C93.43 346.59 87.84 354.5 81.23 361.44 C80.57 361.44 79.91 361.44 79.23 361.44 C78.96 362.08 78.7 362.72 78.42 363.38 C77.23 365.44 77.23 365.44 74.23 366.44 C73.9 367.1 73.57 367.76 73.23 368.44 C72.9 369.1 72.57 369.76 72.23 370.44 C71.24 370.77 70.25 371.1 69.23 371.44 C68.96 372.01 68.69 372.58 68.42 373.17 C66.72 376.42 64.08 378.4 61.29 380.69 C60.72 381.17 60.14 381.65 59.54 382.14 C40.16 398.1 23.11 400.41 -1.25 403.04 C-3.77 403.33 -6.29 403.62 -8.81 403.93 C-18.41 405.11 -27.99 406.04 -37.64 406.56 C-38.4 406.6 -39.17 406.65 -39.95 406.69 C-89.99 409.3 -140.83 408.88 -190.47 401.88 C-195.08 401.26 -199.7 400.81 -204.33 400.38 C-217.01 399.13 -227.45 397.76 -236.77 388.44 C-240.81 385.06 -244.95 381.79 -249.17 378.65 C-253.75 375.22 -257.55 371.68 -261.21 367.28 C-262.88 365.25 -262.88 365.25 -265.39 362.81 C-268.04 360.16 -270.37 357.32 -272.77 354.44 C-273.95 353.28 -273.95 353.28 -275.15 352.1 C-295.98 330.9 -311.95 299 -319.77 270.44 C-319.94 269.81 -320.11 269.19 -320.29 268.55 C-321.48 264.19 -322.64 259.82 -323.77 255.44 C-324.09 254.27 -324.42 253.11 -324.75 251.91 C-334.46 212.66 -333.53 162.56 -316.77 125.44 C-316.31 124.09 -315.87 122.74 -315.46 121.38 C-309.92 104.57 -301.28 88.32 -291.77 73.44 C-291.18 72.5 -290.59 71.56 -289.98 70.6 C-285.09 63.03 -279.65 56.24 -273.77 49.44 C-273.1 48.66 -272.44 47.88 -271.75 47.08 C-268.56 43.38 -265.27 39.85 -261.77 36.44 C-260.94 35.61 -260.12 34.79 -259.27 33.94 C-258.44 33.11 -257.62 32.29 -256.77 31.44 C-255.44 30.05 -255.44 30.05 -254.08 28.62 C-251.77 26.44 -251.77 26.44 -249.77 26.44 C-249.51 25.84 -249.26 25.25 -249 24.63 C-247.62 22.18 -246.31 21.03 -244.06 19.34 C-243.33 18.79 -242.6 18.23 -241.84 17.66 C-241.08 17.09 -240.31 16.52 -239.52 15.94 C-238.39 15.08 -238.39 15.08 -237.24 14.21 C-235.76 13.1 -234.28 12 -232.78 10.91 C-231.12 9.69 -229.49 8.43 -227.86 7.16 C-223.55 4.76 -219.36 4.12 -214.52 3.38 C-213.52 3.21 -212.52 3.05 -211.49 2.88 C-200.78 1.18 -190.01 -0.05 -179.23 -1.19 C-176.74 -1.46 -174.25 -1.75 -171.75 -2.05 C-159.67 -3.52 -147.61 -4.21 -135.46 -4.69 C-134.43 -4.73 -133.41 -4.77 -132.36 -4.81 C-88.18 -6.59 -43.83 -6.26 0 0 Z M-125.77 9.44 C-127.09 9.66 -128.42 9.88 -129.74 10.09 C-151.76 14.05 -173.92 22.38 -192.77 34.44 C-193.87 35.11 -194.97 35.79 -196.11 36.48 C-205.86 42.52 -215.75 49.18 -223.77 57.44 C-224.89 58.38 -226.01 59.32 -227.14 60.25 C-229.88 62.58 -232.23 65.01 -234.48 67.83 C-235.91 69.61 -237.43 71.3 -238.96 73 C-254.15 90.32 -266.54 109.9 -274.77 131.44 C-275.26 132.66 -275.74 133.88 -276.24 135.13 C-279.24 142.73 -281.6 150.1 -283.13 158.16 C-283.59 160.53 -284.15 162.88 -284.78 165.21 C-285.98 169.97 -286.47 174.74 -286.89 179.62 C-286.98 180.58 -287.06 181.54 -287.15 182.53 C-289.36 210.07 -288.36 239.92 -276.77 265.44 C-276.29 266.83 -275.82 268.22 -275.39 269.62 C-268.02 292.13 -254.93 312.77 -238.91 330.1 C-236.25 333.01 -233.71 336.01 -231.18 339.04 C-229.86 340.67 -229.86 340.67 -227.77 340.44 C-227.27 341.92 -227.27 341.92 -226.77 343.44 C-220.02 349.75 -212.32 355.13 -204.77 360.44 C-203.85 361.1 -202.92 361.75 -201.97 362.43 C-195.12 367.19 -188.03 370.97 -180.53 374.58 C-178.01 375.8 -175.57 377.1 -173.15 378.52 C-139.95 397.32 -94.29 399.17 -57.77 392.44 C-56.41 392.21 -55.06 391.98 -53.71 391.75 C-29.59 387.35 -5.7 377.78 14.23 363.44 C15.38 362.63 16.52 361.83 17.67 361.02 C18.92 360.14 20.17 359.26 21.42 358.38 C22 357.96 22.59 357.55 23.19 357.13 C27.02 354.39 30.73 351.59 34.23 348.44 C34.23 347.78 34.23 347.12 34.23 346.44 C34.93 346.25 35.63 346.07 36.36 345.88 C39.77 344.17 41.39 342.17 43.76 339.24 C46.42 335.99 49.49 333.14 52.54 330.25 C54.46 328.61 54.46 328.61 54.23 326.44 C55.22 326.11 56.21 325.78 57.23 325.44 C58.92 323.34 60.46 321.27 61.98 319.06 C62.42 318.43 62.87 317.8 63.32 317.15 C68.65 309.49 73.67 301.69 78.11 293.48 C79.13 291.62 80.2 289.81 81.29 288 C83.76 283.67 85.49 279.1 87.23 274.44 C87.7 273.21 88.16 271.98 88.64 270.72 C105.34 225.77 105.64 173.69 87 129.29 C86 126.88 85.09 124.44 84.17 122 C77.63 105.88 67.18 90.86 56.23 77.44 C55.74 76.84 55.26 76.24 54.75 75.62 C53.26 73.78 51.75 71.95 50.23 70.12 C49.76 69.55 49.29 68.98 48.81 68.4 C47.66 67.04 46.45 65.73 45.23 64.44 C44.57 64.44 43.91 64.44 43.23 64.44 C42.83 63.48 42.83 63.48 42.42 62.5 C41.35 60.11 41.35 60.11 38.23 59.44 C37.9 58.45 37.57 57.46 37.23 56.44 C21.86 41.84 1.85 29.33 -17.77 21.44 C-18.85 21 -19.93 20.56 -21.04 20.11 C-26.91 17.78 -32.62 15.87 -38.77 14.44 C-40.1 13.97 -41.43 13.5 -42.75 13.02 C-48.32 11.14 -53.97 10.22 -59.77 9.31 C-60.8 9.14 -61.83 8.97 -62.89 8.8 C-84.1 5.37 -104.61 5.67 -125.77 9.44 Z " fill="#F7AC17" transform="translate(732.76806640625,375.5625)"/>
<path d="M0 0 C1.01 0.2 2.01 0.41 3.05 0.62 C22.34 5.21 42.14 18.35 53 35 C53.66 35.33 54.32 35.66 55 36 C55.62 38.56 55.62 38.56 56 41 C56.66 41 57.32 41 58 41 C67.28 58.6 73.31 75.82 72 96 C71.95 96.94 71.95 96.94 71.89 97.89 C70.54 119.31 62.76 134.97 50 152 C49.47 152.77 48.94 153.53 48.39 154.32 C47.7 155.15 47.7 155.15 47 156 C46.34 156 45.68 156 45 156 C44.76 156.58 44.52 157.17 44.27 157.77 C38.16 168.53 20.36 177.06 9 181 C-18.38 188.53 -44.68 186.79 -69.88 172.94 C-72.8 171.13 -75.33 169.16 -78 167 C-78.83 166.37 -79.66 165.74 -80.51 165.1 C-91.55 156.51 -99.87 146.61 -106 134 C-106.35 133.39 -106.71 132.77 -107.07 132.14 C-114.56 118.83 -116.05 103.96 -116 89 C-116 87.69 -116 86.38 -116 85.03 C-115.39 67.29 -109.49 50.5 -98.26 36.68 C-96.93 35.01 -96.93 35.01 -95.98 32.95 C-94.53 30.08 -92.31 28.2 -90 26 C-89.44 25.4 -88.89 24.8 -88.31 24.19 C-87 23 -87 23 -85 23 C-85 22.34 -85 21.68 -85 21 C-83.32 19.49 -83.32 19.49 -81.12 17.88 C-80.41 17.34 -79.69 16.8 -78.95 16.24 C-77 15 -77 15 -75 15 C-75 14.34 -75 13.68 -75 13 C-74.45 12.73 -73.89 12.47 -73.32 12.2 C-72.6 11.84 -71.87 11.49 -71.12 11.12 C-70.41 10.78 -69.69 10.43 -68.95 10.07 C-66.85 9.03 -66.85 9.03 -65 7 C-44.35 -3.35 -22.12 -4.56 0 0 Z M-29.97 34.18 C-43.05 35.5 -55.75 42.73 -65 52 C-65.33 52.99 -65.66 53.98 -66 55 C-66.58 55.56 -67.15 56.11 -67.75 56.69 C-76.88 66.07 -80.37 80.51 -80.22 93.38 C-79.28 104.51 -75.89 114.73 -69.5 123.82 C-68 126 -68 126 -66.69 128.46 C-64.58 131.64 -61.96 133.74 -58.94 136 C-58.36 136.44 -57.77 136.87 -57.17 137.32 C-44.22 146.83 -29.48 150.66 -13.48 148.53 C-4.8 147.05 2.38 144.39 10 140 C10 139.34 10 138.68 10 138 C11.11 137.65 11.11 137.65 12.24 137.29 C15.44 135.79 16.94 134.14 19.19 131.44 C22.83 127.09 22.83 127.09 25 126 C25.66 123.47 25.66 123.47 26 121 C26.66 121 27.32 121 28 121 C32.74 111.21 35.68 102.47 35.62 91.5 C35.62 90.61 35.62 89.71 35.62 88.79 C35.37 80.57 33.33 72.98 29.5 65.69 C29.07 64.87 28.64 64.04 28.2 63.2 C26.1 59.34 24.24 55.99 21 53 C20.2 52.17 19.39 51.35 18.56 50.5 C14.87 46.51 14.87 46.51 10 45 C10 44.34 10 43.68 10 43 C-2.8 35.63 -15.4 33.31 -29.97 34.18 Z " fill="#4F5156" transform="translate(662,486)"/>
<path d="M0 0 C2.94 1.43 2.94 1.43 5 3 C5 3.66 5 4.32 5 5 C5.99 5.33 6.98 5.66 8 6 C11.21 10.81 11.3 15.29 11 21 C10.04 24.56 9.05 26.92 7 30 C6.34 30 5.68 30 5 30 C4.76 30.57 4.52 31.15 4.28 31.74 C2.73 34.48 0.93 36.07 -1.44 38.12 C-4.33 40.66 -7.22 43.19 -10.04 45.81 C-10.53 46.27 -11.03 46.73 -11.54 47.2 C-12.94 48.51 -14.35 49.82 -15.75 51.13 C-18 53 -18 53 -20 53 C-20 53.66 -20 54.32 -20 55 C-21.29 56.3 -21.29 56.3 -23.06 57.75 C-23.7 58.28 -24.33 58.8 -24.98 59.35 C-25.65 59.89 -26.31 60.44 -27 61 C-28.27 62.06 -29.55 63.12 -30.81 64.19 C-31.38 64.66 -31.94 65.12 -32.52 65.61 C-34.25 67.13 -34.25 67.13 -36 70 C-36.99 70.33 -37.98 70.66 -39 71 C-40.48 72.57 -40.48 72.57 -41.88 74.44 C-44.38 77.5 -46.25 78.65 -50 80 C-50.28 80.59 -50.57 81.18 -50.86 81.79 C-52.29 84.57 -54.08 86.08 -56.44 88.12 C-59.33 90.66 -62.22 93.19 -65.04 95.81 C-65.53 96.27 -66.03 96.73 -66.54 97.2 C-67.94 98.51 -69.35 99.82 -70.75 101.13 C-73 103 -73 103 -75 103 C-75 103.66 -75 104.32 -75 105 C-76.29 106.3 -76.29 106.3 -78.06 107.75 C-78.7 108.28 -79.33 108.8 -79.98 109.35 C-80.65 109.89 -81.31 110.44 -82 111 C-83.27 112.06 -84.55 113.12 -85.81 114.19 C-86.38 114.66 -86.94 115.12 -87.52 115.61 C-89.25 117.13 -89.25 117.13 -91 120 C-92.49 120.5 -92.49 120.5 -94 121 C-95.48 122.57 -95.48 122.57 -96.88 124.44 C-99.38 127.5 -101.25 128.65 -105 130 C-105.28 130.59 -105.57 131.18 -105.86 131.79 C-107.29 134.57 -109.08 136.08 -111.44 138.12 C-114.33 140.66 -117.22 143.19 -120.04 145.81 C-120.53 146.27 -121.03 146.73 -121.54 147.2 C-122.94 148.51 -124.35 149.82 -125.75 151.13 C-128 153 -128 153 -130 153 C-130 153.66 -130 154.32 -130 155 C-134.03 159.76 -138.13 162.48 -144.39 163.32 C-150.12 163.58 -155.49 162.81 -160 159 C-160.71 156.86 -160.71 156.86 -161 155 C-161.66 155 -162.32 155 -163 155 C-165.03 151.63 -165.3 148.97 -165.31 145.06 C-165.33 144.04 -165.35 143.02 -165.36 141.97 C-164.36 133.77 -156.93 128.94 -151 124 C-148.55 121.61 -146.17 119.17 -143.81 116.69 C-142 115 -142 115 -140 115 C-139.77 114.43 -139.53 113.86 -139.29 113.27 C-137.7 110.47 -135.8 108.8 -133.38 106.69 C-132.03 105.5 -132.03 105.5 -130.65 104.3 C-129.78 103.54 -128.9 102.78 -128 102 C-126.65 100.81 -125.29 99.63 -123.94 98.44 C-121.81 96.58 -119.67 94.72 -117.54 92.86 C-116.72 92.14 -115.9 91.43 -115.06 90.69 C-114.31 90.03 -113.56 89.38 -112.79 88.7 C-110.91 87.11 -110.91 87.11 -110 85 C-109.13 84.6 -109.13 84.6 -108.25 84.19 C-105.27 82.61 -103.35 80.41 -101 78 C-99.33 76.67 -97.67 75.33 -96 74 C-93.55 71.61 -91.17 69.17 -88.81 66.69 C-87 65 -87 65 -85 65 C-84.76 64.43 -84.53 63.85 -84.28 63.26 C-82.72 60.51 -80.89 58.89 -78.5 56.81 C-77.61 56.03 -76.71 55.25 -75.79 54.44 C-74.41 53.23 -74.41 53.23 -73 52 C-71.27 50.44 -69.54 48.88 -67.81 47.31 C-64.89 44.68 -61.95 42.09 -58.94 39.56 C-56.01 37.34 -56.01 37.34 -55 35 C-54.38 34.7 -53.76 34.4 -53.12 34.09 C-50.73 32.86 -49.64 31.61 -48 29.5 C-45.86 26.76 -44.13 25.48 -41 24 C-38.51 21.64 -36.17 19.18 -33.81 16.69 C-32 15 -32 15 -30 15 C-29.79 14.46 -29.57 13.92 -29.36 13.36 C-22.9 2.12 -12.55 -2.57 0 0 Z " fill="#4F5156" transform="translate(1082,128)"/>
<path d="M0 0 C4 2.48 6.85 5.54 10 9 C10.92 9.72 11.83 10.43 12.77 11.17 C13.51 11.78 14.24 12.38 15 13 C15 13.66 15 14.32 15 15 C15.7 15.19 16.4 15.37 17.12 15.56 C20.56 17.28 22.17 19.34 24.47 22.34 C26.18 24.19 27.77 24.89 30 26 C31.61 27.7 33 29.5 34.44 31.34 C36.16 33.17 37.74 33.93 40 35 C42.75 37.5 42.75 37.5 45 40 C45 40.66 45 41.32 45 42 C45.58 42.26 46.17 42.52 46.77 42.79 C49.13 44.07 50.78 45.48 52.71 47.34 C53.4 47.99 54.09 48.64 54.79 49.31 C55.5 49.99 56.21 50.67 56.94 51.38 C58.34 52.72 59.75 54.06 61.15 55.4 C61.81 56.03 62.47 56.66 63.15 57.3 C64.7 58.73 66.35 60.05 68 61.35 C68.66 61.9 69.32 62.44 70 63 C70 63.66 70 64.32 70 65 C71.05 65.28 71.05 65.28 72.12 65.56 C75.56 67.28 77.17 69.34 79.47 72.34 C81.18 74.19 82.77 74.89 85 76 C86.61 77.7 88 79.5 89.44 81.34 C91.16 83.17 92.74 83.93 95 85 C97.75 87.5 97.75 87.5 100 90 C100 90.66 100 91.32 100 92 C100.58 92.26 101.17 92.52 101.77 92.79 C104.13 94.07 105.78 95.48 107.71 97.34 C108.74 98.31 108.74 98.31 109.79 99.31 C110.5 99.99 111.21 100.67 111.94 101.38 C113.34 102.72 114.75 104.06 116.15 105.4 C116.81 106.03 117.47 106.66 118.15 107.3 C119.7 108.73 121.35 110.05 123 111.35 C123.66 111.9 124.32 112.44 125 113 C125 113.66 125 114.32 125 115 C125.7 115.19 126.4 115.37 127.12 115.56 C130.56 117.28 132.17 119.34 134.47 122.34 C135.91 124.1 135.91 124.1 137.96 124.98 C140.46 126.23 141.77 127.75 143.56 129.88 C144.43 130.89 144.43 130.89 145.32 131.93 C145.87 132.61 146.43 133.3 147 134 C147.55 134.62 148.11 135.23 148.68 135.87 C151.48 140.38 150.72 145.93 150 151 C147.97 156.06 145.34 159.15 140.75 162.06 C133.36 163.91 126.71 164 120 160 C118.41 158.37 117 156.67 115.58 154.88 C113.37 152.25 110.83 150.12 108.21 147.89 C105.72 145.76 103.3 143.57 100.88 141.38 C98.1 138.86 95.3 136.4 92.38 134.06 C91.59 133.38 90.81 132.7 90 132 C90 131.34 90 130.68 90 130 C89.46 129.77 88.93 129.55 88.38 129.31 C83.17 126.44 79.17 122.17 75 118 C74.11 117.3 73.23 116.6 72.31 115.88 C70 114 70 114 68 111 C66.51 110.5 66.51 110.5 65 110 C63.46 108.4 63.46 108.4 61.81 106.38 C58.83 102.86 55.69 99.84 52.18 96.86 C48.85 94.02 45.63 91.06 42.39 88.11 C40.72 86.63 38.98 85.22 37.2 83.86 C36.47 83.24 35.75 82.63 35 82 C35 81.34 35 80.68 35 80 C34.46 79.77 33.93 79.55 33.38 79.31 C28.17 76.44 24.17 72.17 20 68 C19.11 67.3 18.23 66.6 17.31 65.88 C15 64 15 64 13 61 C12.01 60.67 11.02 60.34 10 60 C8.46 58.4 8.46 58.4 6.81 56.38 C3.83 52.86 0.69 49.84 -2.82 46.86 C-6.15 44.02 -9.37 41.06 -12.61 38.11 C-14.28 36.63 -16.02 35.22 -17.8 33.86 C-18.53 33.24 -19.25 32.63 -20 32 C-20 31.34 -20 30.68 -20 30 C-20.99 29.67 -21.98 29.34 -23 29 C-26.35 22.54 -26.47 17.08 -25 10 C-23.56 6.81 -23.56 6.81 -22 5 C-21.34 5 -20.68 5 -20 5 C-20 4.34 -20 3.68 -20 3 C-14.1 -1.54 -7 -1.26 0 0 Z " fill="#4F5156" transform="translate(213,128)"/>
<path d="M0 0 C2.94 2.56 2.94 2.56 5 5 C5 5.66 5 6.32 5 7 C5.72 7.23 6.44 7.45 7.19 7.69 C10.57 9.26 12.44 11.31 15 14 C15.83 14.66 16.65 15.32 17.5 16 C20.22 18.17 22.57 20.51 25 23 C33.62 31.85 33.62 31.85 43.23 39.57 C43.82 40.04 44.4 40.52 45 41 C45 41.66 45 42.32 45 43 C45.64 43.27 46.28 43.54 46.94 43.81 C49 45 49 45 50 48 C50.87 48.19 50.87 48.19 51.75 48.38 C55.12 49.31 56.73 51.42 59 54 C59.33 54.99 59.66 55.98 60 57 C60.74 57.29 61.49 57.58 62.25 57.88 C65.69 59.28 67.45 61.32 70 64 C70.83 64.66 71.65 65.32 72.5 66 C75.22 68.17 77.56 70.51 80 73 C89.39 82.7 89.39 82.7 100 91 C100 91.66 100 92.32 100 93 C100.64 93.27 101.28 93.54 101.94 93.81 C104 95 104 95 105 98 C105.72 98.25 106.44 98.5 107.19 98.75 C110.68 100.3 112.19 102.35 114.47 105.34 C116.18 107.19 117.74 107.93 120 109 C122.75 111.5 122.75 111.5 125 114 C125 114.66 125 115.32 125 116 C125.72 116.23 126.44 116.45 127.19 116.69 C130.63 118.29 132.4 120.22 135 123 C137.14 125.08 139.28 127.16 141.43 129.23 C143 131 143 131 143 133 C143.66 133 144.32 133 145 133 C146.64 139.56 146.76 145.79 144 152 C141.22 156.42 138.05 158.75 133 160 C126.12 160.92 120.73 159.97 115 156 C112.31 153.5 112.31 153.5 110 151 C109.17 150.34 108.35 149.68 107.5 149 C104.8 146.84 102.45 144.45 100 142 C99.17 141.34 98.35 140.68 97.5 140 C94.21 137.37 91.35 134.38 88.41 131.37 C83.23 126.12 77.84 121.19 72 116.69 C71.34 116.13 70.68 115.57 70 115 C70 114.34 70 113.68 70 113 C69.36 112.73 68.72 112.46 68.06 112.19 C66 111 66 111 65 108 C64.13 107.81 64.13 107.81 63.25 107.62 C59.92 106.7 58.37 104.48 56 102 C55.01 101.17 54.02 100.35 53 99.5 C50.16 97.13 47.61 94.61 45 92 C44.17 91.34 43.35 90.68 42.5 90 C39.78 87.83 37.43 85.49 35 83 C26.38 74.15 26.38 74.15 16.77 66.43 C15.89 65.72 15.89 65.72 15 65 C15 64.34 15 63.68 15 63 C14.36 62.73 13.72 62.46 13.06 62.19 C11 61 11 61 10 58 C9.13 57.81 9.13 57.81 8.25 57.62 C4.88 56.69 3.27 54.58 1 52 C0.67 51.01 0.34 50.02 0 49 C-1.11 48.57 -1.11 48.57 -2.25 48.12 C-5.69 46.72 -7.45 44.68 -10 42 C-10.83 41.34 -11.65 40.68 -12.5 40 C-15.21 37.83 -17.57 35.49 -20 33 C-20.58 32.44 -21.17 31.88 -21.77 31.3 C-22.38 30.71 -22.99 30.11 -23.62 29.5 C-24.19 28.95 -24.76 28.41 -25.35 27.84 C-30.13 22.49 -30.58 18.18 -30.42 11.17 C-29.68 5.58 -27.06 2.93 -23 -0.88 C-15.96 -4.84 -6.8 -3.79 0 0 Z " fill="#4F5156" transform="translate(947,864)"/>
<path d="M0 0 C0.33 0.99 0.66 1.98 1 3 C1.66 3 2.32 3 3 3 C6.71 7.89 6.79 12.45 6.68 18.41 C5.31 25.6 -0.08 29.71 -5.61 34.05 C-8.32 36.26 -10.32 38.68 -12.47 41.41 C-14.18 43.19 -15.79 43.95 -18 45 C-19.69 46.64 -21.35 48.31 -23 50 C-24.67 51.33 -26.33 52.67 -28 54 C-30.45 56.39 -32.83 58.83 -35.19 61.31 C-37 63 -37 63 -39 63 C-39.23 63.57 -39.47 64.14 -39.71 64.73 C-41.3 67.53 -43.2 69.2 -45.62 71.31 C-46.52 72.1 -47.42 72.89 -48.35 73.7 C-49.22 74.46 -50.1 75.22 -51 76 C-52.35 77.19 -53.71 78.37 -55.06 79.56 C-57.19 81.42 -59.33 83.28 -61.46 85.14 C-62.28 85.86 -63.1 86.57 -63.94 87.31 C-64.69 87.97 -65.44 88.62 -66.21 89.3 C-68.09 90.89 -68.09 90.89 -69 93 C-69.87 93.4 -69.87 93.4 -70.75 93.81 C-73.73 95.39 -75.65 97.59 -78 100 C-79.67 101.33 -81.33 102.67 -83 104 C-85.45 106.39 -87.83 108.83 -90.19 111.31 C-92 113 -92 113 -94 113 C-94.23 113.57 -94.47 114.14 -94.71 114.73 C-96.3 117.53 -98.2 119.2 -100.62 121.31 C-101.52 122.1 -102.42 122.89 -103.35 123.7 C-104.22 124.46 -105.1 125.22 -106 126 C-107.35 127.19 -108.71 128.37 -110.06 129.56 C-112.19 131.42 -114.33 133.28 -116.46 135.14 C-117.28 135.86 -118.1 136.57 -118.94 137.31 C-119.69 137.97 -120.44 138.62 -121.21 139.3 C-123.09 140.89 -123.09 140.89 -124 143 C-124.87 143.4 -124.87 143.4 -125.75 143.81 C-128.73 145.39 -130.65 147.59 -133 150 C-134.66 151.34 -136.33 152.67 -138 154 C-138.66 154.7 -139.32 155.4 -140 156.12 C-144.33 160.18 -148.79 160.39 -154.5 160.24 C-158.93 159.81 -162.39 158.69 -165.5 155.42 C-169.73 149.89 -170.48 144.93 -170 138 C-168.16 132.17 -165.51 128.93 -161 125 C-160.34 125 -159.68 125 -159 125 C-159 124.34 -159 123.68 -159 123 C-157.71 121.7 -157.71 121.7 -155.94 120.25 C-155.3 119.72 -154.67 119.2 -154.02 118.65 C-153.35 118.11 -152.69 117.56 -152 117 C-150.73 115.94 -149.45 114.88 -148.19 113.81 C-147.62 113.34 -147.06 112.88 -146.48 112.39 C-144.75 110.87 -144.75 110.87 -143 108 C-141.51 107.5 -141.51 107.5 -140 107 C-138.52 105.43 -138.52 105.43 -137.12 103.56 C-134.62 100.5 -132.75 99.35 -129 98 C-128.72 97.41 -128.43 96.82 -128.14 96.21 C-126.71 93.43 -124.92 91.92 -122.56 89.88 C-119.67 87.34 -116.78 84.81 -113.96 82.19 C-113.47 81.73 -112.97 81.27 -112.46 80.8 C-111.06 79.49 -109.65 78.18 -108.25 76.87 C-106 75 -106 75 -104 75 C-104 74.34 -104 73.68 -104 73 C-102.71 71.7 -102.71 71.7 -100.94 70.25 C-100.3 69.72 -99.67 69.2 -99.02 68.65 C-98.35 68.11 -97.69 67.56 -97 67 C-95.73 65.94 -94.45 64.88 -93.19 63.81 C-92.62 63.34 -92.06 62.88 -91.48 62.39 C-89.75 60.87 -89.75 60.87 -88 58 C-87.01 57.67 -86.02 57.34 -85 57 C-83.52 55.43 -83.52 55.43 -82.12 53.56 C-79.62 50.5 -77.75 49.35 -74 48 C-73.72 47.41 -73.43 46.82 -73.14 46.21 C-71.71 43.43 -69.92 41.92 -67.56 39.88 C-64.67 37.34 -61.78 34.81 -58.96 32.19 C-58.47 31.73 -57.97 31.27 -57.46 30.8 C-56.06 29.49 -54.65 28.18 -53.25 26.87 C-51 25 -51 25 -49 25 C-49 24.34 -49 23.68 -49 23 C-47.71 21.7 -47.71 21.7 -45.94 20.25 C-44.99 19.46 -44.99 19.46 -44.02 18.65 C-43.35 18.11 -42.69 17.56 -42 17 C-40.73 15.94 -39.45 14.88 -38.19 13.81 C-37.62 13.34 -37.06 12.88 -36.48 12.39 C-34.75 10.87 -34.75 10.87 -33 8 C-32.01 7.67 -31.02 7.34 -30 7 C-27.54 4.67 -25.23 2.25 -22.94 -0.25 C-16.97 -5.64 -6.37 -3.66 0 0 Z " fill="#4F5156" transform="translate(357,864)"/>
<path d="M0 0 C4.22 2.57 7.14 5.83 8.74 10.58 C9.37 13.89 9.33 17.16 9.32 20.52 C9.32 21.28 9.33 22.05 9.33 22.84 C9.33 25.41 9.33 27.98 9.33 30.55 C9.34 32.4 9.34 34.24 9.34 36.08 C9.35 41.09 9.35 46.1 9.35 51.11 C9.36 55.29 9.36 59.47 9.36 63.65 C9.37 73.51 9.37 83.37 9.37 93.23 C9.37 103.41 9.38 113.58 9.4 123.76 C9.41 132.49 9.42 141.22 9.42 149.96 C9.42 155.17 9.42 160.39 9.43 165.61 C9.44 170.52 9.44 175.42 9.43 180.33 C9.43 182.13 9.43 183.93 9.44 185.73 C9.45 188.19 9.44 190.65 9.43 193.11 C9.44 193.82 9.45 194.53 9.45 195.26 C9.41 200.67 8.36 204.88 5.69 209.56 C1.63 213.42 -3.37 215.68 -9 216.1 C-15.23 215.59 -19.98 212.91 -24.19 208.38 C-27.03 204.11 -26.96 200.29 -26.97 195.34 C-26.97 194.56 -26.98 193.78 -26.98 192.97 C-26.99 190.35 -27 187.72 -27.01 185.1 C-27.01 183.22 -27.02 181.34 -27.03 179.46 C-27.06 173.28 -27.07 167.1 -27.09 160.93 C-27.09 158.8 -27.1 156.67 -27.1 154.55 C-27.12 145.7 -27.14 136.85 -27.15 128 C-27.17 115.33 -27.2 102.65 -27.26 89.97 C-27.3 81.05 -27.32 72.14 -27.32 63.22 C-27.33 57.9 -27.34 52.57 -27.37 47.25 C-27.4 42.24 -27.41 37.23 -27.4 32.22 C-27.4 30.38 -27.4 28.54 -27.42 26.71 C-27.57 9.97 -27.57 9.97 -23.25 4.28 C-16.52 -2.02 -8.57 -2.39 0 0 Z " fill="#4F5156" transform="translate(648.8125,1.0625)"/>
<path d="M0 0 C3.87 2.55 7.07 5.41 8.38 10.03 C8.85 13.53 8.89 16.98 8.89 20.5 C8.89 21.27 8.9 22.04 8.9 22.83 C8.91 25.39 8.91 27.96 8.91 30.53 C8.92 32.37 8.92 34.21 8.93 36.05 C8.94 41.05 8.95 46.05 8.95 51.05 C8.95 54.18 8.96 57.3 8.96 60.42 C8.98 70.2 8.99 79.98 8.99 89.76 C8.99 101.04 9.01 112.32 9.04 123.61 C9.06 132.33 9.07 141.05 9.07 149.78 C9.07 154.99 9.08 160.2 9.1 165.41 C9.11 170.31 9.12 175.21 9.11 180.11 C9.11 181.91 9.11 183.7 9.12 185.5 C9.13 187.96 9.13 190.41 9.12 192.87 C9.13 193.57 9.13 194.28 9.14 195.01 C9.08 201.22 7.23 207.33 2.75 211.81 C-2.79 214.98 -7.92 215.71 -14.25 214.81 C-17.2 213.87 -19.87 212.82 -22.25 210.81 C-22.96 208.67 -22.96 208.67 -23.25 206.81 C-23.91 206.81 -24.57 206.81 -25.25 206.81 C-27.67 203.07 -27.53 199.38 -27.51 195.08 C-27.52 193.9 -27.52 193.9 -27.52 192.7 C-27.53 190.07 -27.53 187.44 -27.52 184.81 C-27.53 182.93 -27.53 181.04 -27.54 179.16 C-27.55 174.04 -27.55 168.92 -27.55 163.8 C-27.55 159.53 -27.56 155.26 -27.56 150.99 C-27.57 140.91 -27.57 130.83 -27.57 120.75 C-27.56 110.35 -27.57 99.95 -27.59 89.55 C-27.61 80.63 -27.62 71.7 -27.61 62.77 C-27.61 57.44 -27.61 52.11 -27.63 46.78 C-27.64 41.76 -27.64 36.75 -27.63 31.73 C-27.62 29.89 -27.63 28.05 -27.63 26.21 C-27.64 23.7 -27.64 21.19 -27.62 18.68 C-27.63 17.95 -27.64 17.22 -27.65 16.46 C-27.6 12.05 -26.84 9.39 -24.25 5.81 C-23.88 5.13 -23.51 4.45 -23.12 3.75 C-16.5 -3.1 -8.42 -3.08 0 0 Z " fill="#4F5156" transform="translate(649.25,940.1875)"/>
</svg>
